:SAMPLES-PER-SECOND 30
:FRAME-RANGE 1-744
:FULLY-SPECIFIED
:DEGREES
280
root  1.55084 40.578 32.9855 -14.6052 64.4136 -10.0302
RightUpLeg  9.69563 -1.53536 2.31174
RightLeg  1.90424 -7.30624 -1.45068
RightFoot  -1.7444 -0.877508 10.2849
RightToes  5.82063e-011 0 -3.6325e-017
Spine  19.3345 6.78209 14.7916
Spine1  -5.4009 11.4023 -14.5861
HEad  0.390735 -32.6229 8.08241
LeftShoulder1  3.31458 -5.85353 -29.3951
LeftArm  6.83209 -29.3691 -30.7429
LeftForeArm  -37.2659 -23.1525 -6.91206
LeftHand  -0.866618 -5.4519 9.57621
RightShoulder  25.0108 36.1161 54.6449
RightArm  -24.9916 33.1344 -1.01001
RightForeArm  -10.2125 1.27371 11.1517
RightHand  2.54325 19.8924 11.0429
LeftUpLeg  1.7503 -1.0709 3.84439
LeftLeg  7.55074 -19.1709 2.35504
LeftFoot  -4.31012 -0.241294 4.34903
LeftToes  1.25507e-010 -3.78807e-010 5.71421e-011
281
root  1.627 40.5862 33.1936 -14.6842 62.4248 -10.2835
RightUpLeg  8.75948 -1.25833 2.8299
RightLeg  3.66774 -5.08605 -1.57958
RightFoot  -1.99716 -0.943874 11.3473
RightToes  5.82063e-011 0 -3.6325e-017
Spine  19.3115 6.68781 14.5662
Spine1  -5.2071 11.2099 -13.9104
HEad  1.11231 -31.5653 7.84329
LeftShoulder1  3.27773 -5.75944 -29.3558
LeftArm  5.29574 -26.7796 -31.1777
LeftForeArm  -33.2719 -21.7314 -7.33487
LeftHand  -1.0519 -5.78568 11.218
RightShoulder  25.2908 35.8022 55.6788
RightArm  -23.644 32.6592 -0.566892
RightForeArm  -5.08517 1.76343 11.2671
RightHand  2.54366 20.9828 10.5572
LeftUpLeg  2.0349 -0.0690545 5.04826
LeftLeg  7.91021 -18.2979 1.83717
LeftFoot  -4.8627 -0.211949 4.26139
LeftToes  1.25507e-010 -3.78807e-010 5.71421e-011
282
root  1.68567 40.5605 33.4155 -14.2413 59.7922 -9.8289
RightUpLeg  7.96269 -1.32253 2.64552
RightLeg  5.5281 -1.08112 -1.23436
RightFoot  -3.21003 -0.982096 13.4502
RightToes  5.82063e-011 0 -3.6325e-017
Spine  19.3062 6.69506 13.9553
Spine1  -5.01794 11.0587 -13.3727
HEad  2.15747 -30.5121 7.54669
LeftShoulder1  3.2648 -5.68668 -29.4977
LeftArm  6.06155 -23.684 -31.2034
LeftForeArm  -32.9116 -20.8649 -7.87123
LeftHand  -1.18549 -5.20738 13.2454
RightShoulder  25.4791 35.1502 57.0079
RightArm  -20.5617 31.7777 0.142379
RightForeArm  -1.3039 2.60503 11.7599
RightHand  2.5725 21.5915 10.4236
LeftUpLeg  2.49677 1.00753 6.07183
LeftLeg  8.54726 -16.9561 1.30208
LeftFoot  -5.75682 -0.155142 3.89122
LeftToes  1.25507e-010 -3.78807e-010 5.71421e-011
283
root  1.71605 40.4809 33.6388 -13.1086 56.6582 -8.52202
RightUpLeg  7.3561 -1.1534 1.72459
RightLeg  7.00728 3.27253 -0.712268
RightFoot  -5.88275 -0.902779 17.9543
RightToes  5.82063e-011 0 -3.6325e-017
Spine  19.2631 6.70367 13.0185
Spine1  -4.73137 10.902 -13.4841
HEad  3.38692 -29.2708 7.18277
LeftShoulder1  3.23993 -5.55519 -29.7425
LeftArm  11.6852 -20.19 -30.7446
LeftForeArm  -36.3332 -21.4638 -7.77981
LeftHand  -1.22576 -3.74542 15.7693
RightShoulder  25.6016 34.216 58.6388
RightArm  -15.4165 30.371 1.34669
RightForeArm  -1.96526 3.89526 12.6474
RightHand  2.80089 21.47 11.4423
LeftUpLeg  2.98339 2.30779 6.60437
LeftLeg  9.46926 -15.2475 0.909298
LeftFoot  -6.79264 -0.101929 3.59587
LeftToes  1.25507e-010 -3.78807e-010 5.71421e-011
284
root  1.74808 40.4618 33.895 -12.4813 52.5794 -7.88559
RightUpLeg  6.44424 -0.599925 1.17253
RightLeg  8.37047 4.65028 -0.580306
RightFoot  -8.43275 -0.511277 17.7323
RightToes  5.82063e-011 0 -3.6325e-017
Spine  18.4879 6.99882 12.6956
Spine1  -3.78274 11.1423 -13.2518
HEad  4.52329 -28.3745 6.50871
LeftShoulder1  3.24585 -5.48634 -30.0875
LeftArm  15.5828 -17.1988 -30.5674
LeftForeArm  -36.1486 -20.9547 -8.25193
LeftHand  -1.00654 -4.99184 11.5276
RightShoulder  25.4774 32.9735 60.2575
RightArm  -9.14838 28.6014 2.82071
RightForeArm  -3.10805 4.78218 13.3865
RightHand  2.84639 21.0933 11.8112
LeftUpLeg  4.31589 4.35058 7.72671
LeftLeg  9.01424 -13.4985 0.89449
LeftFoot  -7.50754 -0.0585984 3.10095
LeftToes  1.25507e-010 -3.78807e-010 5.71421e-011
285
root  1.77692 40.4615 34.1305 -12.1263 49.0523 -7.47617
RightUpLeg  5.80425 -0.694693 0.133347
RightLeg  8.5961 2.74929 -1.04899
RightFoot  -9.37485 -0.357639 16.9854
RightToes  5.82063e-011 0 -3.6325e-017
Spine  18.1168 6.81299 12.3425
Spine1  -3.61816 10.8082 -12.8273
HEad  5.75004 -27.677 5.66089
LeftShoulder1  3.24401 -5.31498 -30.7761
LeftArm  16.7945 -14.2084 -30.7048
LeftForeArm  -33.5397 -19.6968 -9.21002
LeftHand  -0.946949 -4.95229 10.906
RightShoulder  25.3124 31.3249 62.52
RightArm  -3.46138 26.5018 3.74638
RightForeArm  -2.41926 4.52179 14.0992
RightHand  2.60704 20.6823 10.9645
LeftUpLeg  5.91201 5.79138 8.57283
LeftLeg  7.99497 -11.67 1.20611
LeftFoot  -7.84428 -0.0359076 2.72266
LeftToes  1.25507e-010 -3.78807e-010 5.71421e-011
